<svg width="25.999985" height="16.013550" viewBox="0 0 26 16.0135" fill="none" xmlns="http://www.w3.org/2000/svg" xmlns:xlink="http://www.w3.org/1999/xlink">
	<desc>
			Created with Pixso.
	</desc>
	<defs/>
	<path id="Прямоугольник 18" d="M24.81 2.47L3.67 2.47C3.05 2.47 2.58 3.04 2.69 3.65L4.2 11.81C4.29 12.28 4.7 12.62 5.18 12.62L23.39 12.62C23.88 12.62 24.29 12.27 24.37 11.8L25.79 3.64C25.9 3.03 25.43 2.47 24.81 2.47ZM24.81 3.47L3.67 3.47L5.18 11.62L23.39 11.62L24.81 3.47Z" fill="#000000" fill-opacity="1.000000" fill-rule="evenodd"/>
	<ellipse id="Эллипс 7" rx="1.857143" ry="1.692384" transform="matrix(-1 0 0 1 5.5715 14.3212)" fill="#000000" fill-opacity="1.000000"/>
	<ellipse id="Эллипс 8" rx="1.857143" ry="1.692384" transform="matrix(-1 0 0 1 21.6667 14.3212)" fill="#000000" fill-opacity="1.000000"/>
	<path id="Линия 5" d="M3.71 5.29L2.16 1.78C1.78 1 0.99 0.5 0.11 0.5L0 0.5" stroke="#000000" stroke-opacity="1.000000" stroke-width="1.000000"/>
</svg>
