<svg width="22.191772" height="13.494812" viewBox="0 0 22.1918 13.4948" fill="none" xmlns="http://www.w3.org/2000/svg" xmlns:xlink="http://www.w3.org/1999/xlink">
	<desc>
			Created with Pixso.
	</desc>
	<defs/>
	<rect id="Прямоугольник 9" y="5.622864" rx="1.124558" width="12.999998" height="2.249117" fill="#FFFFFF" fill-opacity="1.000000"/>
	<rect id="Прямоугольник 9" y="0.000061" rx="1.124558" width="21.999996" height="2.249117" fill="#FFFFFF" fill-opacity="1.000000"/>
	<rect id="Прямоугольник 9" y="11.245667" rx="1.124558" width="13.999998" height="2.249117" fill="#FFFFFF" fill-opacity="1.000000"/>
	<path id=" " d="M19.83 10.04L21.83 12.12" stroke="#FFFFFF" stroke-opacity="1.000000" stroke-width="1.000000"/>
	<path id="Эллипс 2" d="M21 8.04C20.86 8.99 20.38 9.7 19.78 10.29C19.13 10.92 18.34 11.23 17.54 11.24C16.69 11.25 15.9 10.92 15.28 10.35C14.62 9.74 14.21 8.92 14.06 8.04C13.9 7.09 14.05 6.16 14.44 5.38C14.86 4.54 15.51 3.94 16.26 3.63C17.06 3.28 17.9 3.29 18.65 3.59C19.46 3.91 20.1 4.52 20.5 5.29C20.94 6.12 21.12 7.16 21 8.04ZM19.69 8.8C19.55 9.06 19.34 9.32 19.08 9.57L19.08 9.57C18.87 9.78 18.63 9.94 18.37 10.05C18.36 10.06 18.34 10.07 18.33 10.07C18.17 10.14 18.01 10.18 17.85 10.21C17.75 10.23 17.64 10.24 17.53 10.24C17.39 10.24 17.26 10.23 17.13 10.21C16.98 10.18 16.84 10.14 16.69 10.09C16.68 10.08 16.66 10.07 16.64 10.07C16.4 9.96 16.17 9.81 15.96 9.62C15.92 9.58 15.88 9.54 15.84 9.5C15.65 9.3 15.49 9.08 15.36 8.83C15.35 8.8 15.33 8.77 15.31 8.74C15.18 8.47 15.1 8.18 15.04 7.87C15.01 7.65 14.99 7.43 15 7.21C15 7.07 15.01 6.93 15.03 6.8C15.07 6.55 15.13 6.31 15.22 6.08C15.26 5.99 15.3 5.91 15.34 5.83C15.49 5.52 15.68 5.25 15.92 5.03C16.1 4.86 16.3 4.72 16.51 4.61C16.56 4.59 16.6 4.56 16.65 4.55C16.85 4.46 17.06 4.4 17.27 4.38C17.34 4.37 17.41 4.37 17.48 4.37C17.56 4.37 17.64 4.37 17.72 4.38C17.91 4.4 18.1 4.45 18.28 4.52C18.35 4.55 18.41 4.58 18.48 4.61C18.68 4.71 18.87 4.84 19.04 5C19.27 5.22 19.46 5.47 19.62 5.76C19.79 6.08 19.91 6.43 19.98 6.82C20.04 7.2 20.05 7.56 20.01 7.9C19.98 8.07 19.94 8.23 19.88 8.39C19.83 8.53 19.77 8.67 19.69 8.8Z" fill="#FFFFFF" fill-opacity="1.000000" fill-rule="evenodd"/>
</svg>
