<svg width="22.715942" height="20.349365" viewBox="0 0 22.7159 20.3494" fill="none" xmlns="http://www.w3.org/2000/svg" xmlns:xlink="http://www.w3.org/1999/xlink">
	<desc>
			Created with Pixso.
	</desc>
	<defs/>
	<rect id="Прямоугольник 16" x="0.500000" y="7.622314" rx="2.000000" width="7.260376" height="12.227058" stroke="#000000" stroke-opacity="1.000000" stroke-width="1.000000"/>
	<path id="Прямоугольник 17" d="M11.87 4.06L9.39 6.51C9.32 6.58 9.25 6.64 9.17 6.69L8.03 7.54C7.52 7.91 7.22 8.51 7.22 9.14L7.22 18.34C7.22 19.45 8.12 20.34 9.22 20.34L18.8 20.34C19.61 20.34 20.33 19.86 20.65 19.12L22.55 14.61C22.66 14.37 22.71 14.1 22.71 13.83L22.71 9.63C22.71 8.52 21.82 7.63 20.71 7.63L17.75 7.63C16.39 7.63 15.42 6.28 15.86 4.99L16 4.57L16.89 2.39C16.98 2.15 17.03 1.9 17.03 1.64L17.03 1.33C17.03 1.12 16.98 0.91 16.89 0.73C16.66 0.28 16.2 0 15.69 0L14.97 0L13.93 1.52L11.87 4.06ZM15.5 1L15.69 1Q15.74 1 15.79 1.01Q15.83 1.02 15.87 1.04Q15.91 1.07 15.94 1.1Q15.97 1.14 16 1.18Q16.01 1.22 16.02 1.25Q16.03 1.29 16.03 1.33L16.03 1.64Q16.03 1.74 16.01 1.83Q16 1.93 15.96 2.02L15.06 4.23L14.91 4.66Q14.78 5.06 14.76 5.45Q14.74 5.78 14.79 6.11Q14.84 6.43 14.96 6.73Q15.1 7.07 15.32 7.37Q15.54 7.68 15.81 7.92Q16.06 8.12 16.35 8.28Q16.65 8.44 16.96 8.52Q17.34 8.63 17.75 8.63L20.71 8.63Q20.83 8.63 20.95 8.65Q21.03 8.67 21.1 8.7Q21.18 8.74 21.25 8.78Q21.34 8.84 21.42 8.92Q21.5 9 21.55 9.09Q21.6 9.16 21.63 9.24Q21.66 9.31 21.68 9.39Q21.71 9.5 21.71 9.63L21.71 13.83Q21.71 13.94 21.69 14.03Q21.67 14.13 21.63 14.22L19.72 18.73Q19.67 18.87 19.57 18.98Q19.48 19.09 19.36 19.18Q19.23 19.26 19.09 19.3Q18.95 19.34 18.8 19.34L9.22 19.34Q9.1 19.34 8.98 19.32Q8.91 19.3 8.83 19.27Q8.76 19.23 8.68 19.19Q8.59 19.13 8.52 19.05Q8.44 18.97 8.38 18.88Q8.33 18.81 8.3 18.73Q8.27 18.66 8.25 18.59Q8.22 18.47 8.22 18.34L8.22 9.14Q8.22 9.02 8.25 8.91Q8.28 8.8 8.33 8.69Q8.38 8.59 8.46 8.5Q8.53 8.41 8.63 8.34L9.77 7.5Q9.85 7.43 9.94 7.36Q10.02 7.3 10.09 7.22L12.61 4.74L14.74 2.12L15.5 1Z" fill="#000000" fill-opacity="1.000000" fill-rule="evenodd"/>
</svg>
