<svg width="19.401619" height="17.463196" viewBox="0 0 19.4016 17.4632" fill="none" xmlns="http://www.w3.org/2000/svg" xmlns:xlink="http://www.w3.org/1999/xlink">
	<desc>
			Created with Pixso.
	</desc>
	<defs/>
	<path id="Эллипс 5" d="M17.83 17.46L19.4 17.46C19.4 16.41 19.23 15.4 18.92 14.46C18.6 13.48 18.14 12.57 17.54 11.76C16.29 10.03 14.58 8.84 12.69 8.23C10.67 7.57 8.58 7.62 6.7 8.23C4.67 8.89 3.01 10.15 1.85 11.76C1.23 12.6 0.78 13.51 0.47 14.46C0.15 15.44 0 16.45 0 17.45L0 17.46L1.56 17.46L1.56 17.46C1.56 15.67 2.14 14.02 3.12 12.68C4.16 11.23 5.6 10.23 7.18 9.72C8.02 9.45 8.86 9.21 9.7 9.21C10.56 9.21 11.41 9.46 12.21 9.72C13.91 10.27 15.3 11.33 16.28 12.68C17.33 14.12 17.83 15.79 17.83 17.45L17.83 17.46Z" fill="#000000" fill-opacity="1.000000" fill-rule="evenodd"/>
	<ellipse id="Эллипс 6" cx="9.700825" cy="3.395630" rx="3.657490" ry="2.895630" stroke="#000000" stroke-opacity="1.000000" stroke-width="1.000000"/>
</svg>
