<svg width="19.999939" height="12.109100" viewBox="0 0 19.9999 12.1091" fill="none" xmlns="http://www.w3.org/2000/svg" xmlns:xlink="http://www.w3.org/1999/xlink">
	<desc>
			Created with Pixso.
	</desc>
	<defs/>
	<path id="Прямоугольник 18" d="M18.81 1.22L3.09 1.22C2.47 1.22 2 1.79 2.11 2.4L3.2 8.56C3.29 9.04 3.7 9.38 4.19 9.38L17.79 9.38C18.28 9.38 18.7 9.03 18.78 8.55L19.8 2.39C19.9 1.78 19.43 1.22 18.81 1.22ZM18.81 2.22L3.09 2.22L4.19 8.38L17.79 8.38L18.81 2.22Z" fill="#FFFFFF" fill-opacity="1.000000" fill-rule="evenodd"/>
	<ellipse id="Эллипс 7" rx="1.428571" ry="1.359951" transform="matrix(-1 0 0 1 4.28577 10.7491)" fill="#FFFFFF" fill-opacity="1.000000"/>
	<ellipse id="Эллипс 7" rx="0.928571" ry="0.859951" transform="matrix(-1 0 0 1 4.28577 10.7491)" stroke="#FFFFFF" stroke-opacity="1.000000" stroke-width="1.000000"/>
	<ellipse id="Эллипс 8" rx="1.428571" ry="1.359951" transform="matrix(-1 0 0 1 16.6667 10.7491)" fill="#FFFFFF" fill-opacity="1.000000"/>
	<ellipse id="Эллипс 8" rx="0.928571" ry="0.859951" transform="matrix(-1 0 0 1 16.6667 10.7491)" stroke="#FFFFFF" stroke-opacity="1.000000" stroke-width="1.000000"/>
	<path id="Линия 5" d="M3.04 2.82L1.94 0.93L1.94 0.92Q1.67 0.49 1.22 0.24Q0.78 0 0.27 0L0 0L0 1L0.27 1Q0.52 1 0.74 1.12Q0.96 1.24 1.09 1.45L1.52 1.19L1.08 1.44L2.17 3.32L3.04 2.82Z" fill="#FFFFFF" fill-opacity="1.000000" fill-rule="evenodd"/>
</svg>
