<svg width="20.740690" height="17.609985" viewBox="0 0 20.7407 17.61" fill="none" xmlns="http://www.w3.org/2000/svg" xmlns:xlink="http://www.w3.org/1999/xlink">
	<desc>
			Created with Pixso.
	</desc>
	<defs/>
	<rect id="Прямоугольник 16" x="0.500000" y="6.663513" rx="2.000000" width="6.542087" height="10.446491" stroke="#000000" stroke-opacity="1.000000" stroke-width="1.000000"/>
	<path id="Прямоугольник 17" d="M10.84 3.52L8.58 5.62C8.51 5.69 8.44 5.75 8.36 5.8L7.45 6.44C6.91 6.82 6.59 7.43 6.59 8.08L6.59 15.61C6.59 16.71 7.49 17.61 8.59 17.61L17.08 17.61C17.87 17.61 18.59 17.14 18.91 16.42L20.56 12.71C20.68 12.45 20.74 12.18 20.74 11.9L20.74 8.6C20.74 7.49 19.84 6.6 18.74 6.6L16.47 6.6C15.1 6.6 14.15 5.24 14.61 3.96L15.39 2.13C15.5 1.88 15.55 1.62 15.55 1.35L15.55 1.17C15.55 0.98 15.5 0.79 15.41 0.62C15.21 0.23 14.81 0 14.38 0L13.67 0L12.72 1.32L10.84 3.52ZM14.18 1L14.38 1C14.41 1 14.44 1 14.47 1.02C14.49 1.03 14.51 1.06 14.53 1.09C14.54 1.1 14.54 1.11 14.55 1.13C14.55 1.14 14.55 1.16 14.55 1.17L14.55 1.35C14.55 1.41 14.54 1.48 14.53 1.55C14.52 1.61 14.5 1.68 14.47 1.74L13.68 3.59L13.67 3.62C13.57 3.88 13.52 4.14 13.5 4.41C13.48 4.62 13.49 4.84 13.52 5.06C13.56 5.28 13.61 5.49 13.69 5.69C13.78 5.92 13.89 6.13 14.04 6.34C14.18 6.54 14.35 6.72 14.53 6.88C14.69 7.02 14.87 7.14 15.07 7.25C15.26 7.35 15.46 7.43 15.67 7.49C15.93 7.56 16.19 7.6 16.47 7.6L18.74 7.6C18.82 7.6 18.9 7.61 18.98 7.63C19.03 7.64 19.08 7.66 19.12 7.68C19.18 7.7 19.23 7.73 19.27 7.76C19.33 7.79 19.39 7.84 19.44 7.89C19.49 7.94 19.54 8 19.58 8.06C19.61 8.11 19.64 8.16 19.66 8.21C19.68 8.26 19.69 8.31 19.71 8.36C19.73 8.44 19.74 8.52 19.74 8.6L19.74 11.9C19.74 11.97 19.73 12.04 19.71 12.1C19.7 12.17 19.68 12.24 19.65 12.3L17.99 16.01C17.95 16.1 17.9 16.18 17.84 16.26C17.78 16.33 17.71 16.39 17.63 16.44C17.54 16.5 17.46 16.54 17.37 16.56C17.27 16.59 17.18 16.61 17.08 16.61L8.59 16.61C8.51 16.61 8.43 16.6 8.35 16.58C8.3 16.56 8.25 16.55 8.21 16.53C8.15 16.5 8.1 16.48 8.06 16.45C8 16.41 7.94 16.36 7.89 16.31C7.84 16.26 7.79 16.2 7.75 16.14C7.72 16.1 7.69 16.05 7.67 15.99C7.65 15.95 7.64 15.9 7.62 15.85C7.6 15.77 7.59 15.69 7.59 15.61L7.59 8.08C7.59 8 7.6 7.92 7.62 7.84C7.64 7.77 7.67 7.69 7.71 7.62C7.74 7.55 7.79 7.48 7.84 7.42C7.89 7.36 7.95 7.31 8.02 7.26L8.94 6.62C9 6.58 9.05 6.54 9.11 6.49C9.16 6.45 9.21 6.4 9.26 6.35L11.56 4.21L13.51 1.93L14.18 1Z" fill="#000000" fill-opacity="1.000000" fill-rule="evenodd"/>
</svg>
